<svg data-name="Layer 1" xmlns="http://www.w3.org/2000/svg" width="745" height="589.13305" viewBox="0 0 745 589.13305" xmlns:xlink="http://www.w3.org/1999/xlink"><path d="M284.897,447.2115c1.0332,2.166,2.123,4.343,3.24121,6.466l1.061-.559c-1.11035-2.109-2.19336-4.27-3.21924-6.423Z" transform="translate(-227.5 -155.43347)" fill="#ccc"/><path d="M291.6348,460.01051c1.20411,2.079,2.46729,4.161,3.75342,6.188l1.0127-.641c-1.27686-2.014-2.52783-4.082-3.728-6.147Z" transform="translate(-227.5 -155.43347)" fill="#ccc"/><path d="M279.21391,433.92347c.85107,2.23505,1.7622,4.49,2.707,6.7l1.104-.471c-.939-2.195-1.84277-4.435-2.689-6.656Z" transform="translate(-227.5 -155.43347)" fill="#ccc"/><path d="M299.39115,472.22749c1.3667,1.975,2.79395,3.95,4.23975,5.87l.958-.722c-1.436-1.907-2.853-3.869-4.21094-5.831Z" transform="translate(-227.5 -155.43347)" fill="#ccc"/><path d="M425.51225,191.23652l.145,1.191v.007c2.3706-.291,4.77978-.535,7.165-.73l-.10009-1.2C430.32523,190.69953,427.899,190.9455,425.51225,191.23652Z" transform="translate(-227.5 -155.43347)" fill="#ccc"/><path d="M268.84916,377.30854l-1.2002.049c.09815,2.404.24512,4.835.439,7.235l1.19726-.097C269.09281,382.11451,268.94926,379.69654,268.84916,377.30854Z" transform="translate(-227.5 -155.43347)" fill="#ccc"/><path d="M274.61283,420.17848c.67041,2.309,1.397,4.637,2.16113,6.918l1.13916-.38105c-.75927-2.266-1.481-4.578-2.147-6.871Z" transform="translate(-227.5 -155.43347)" fill="#ccc"/><path d="M268.69926,369.91456c0-2.329.04492-4.684.13379-7l-1.2002-.046c-.08984,2.331-.13476,4.702-.13476,7.043v.2h1.20019Z" transform="translate(-227.5 -155.43347)" fill="#ccc"/><path d="M268.81889,391.80348c.29,2.392.63232,4.806,1.01709,7.175l1.18408-.19195c-.38184-2.353-.72217-4.75-1.01026-7.127Z" transform="translate(-227.5 -155.43347)" fill="#ccc"/><path d="M269.25492,355.72651c.188-2.387.42627-4.797.70215-7.165l-1.19189-.142c-.28418,2.38306-.52295,4.812-.71241,7.212l1.2002.094Z" transform="translate(-227.5 -155.43347)" fill="#ccc"/><path d="M308.10111,483.79951c1.52,1.856,3.1001,3.715,4.69971,5.515l.896-.796c-1.58887-1.791-3.15967-3.634-4.667-5.478Z" transform="translate(-227.5 -155.43347)" fill="#ccc"/><path d="M404.52787,544.75355c2.332.57,4.71143,1.103,7.07324,1.581l.2378-1.176c-2.34571-.471-4.709-1.00305-7.02588-1.57105Z" transform="translate(-227.5 -155.43347)" fill="#ccc"/><path d="M397.14115,197.05152l.335,1.152c2.292-.66895,4.63086-1.295,6.95313-1.87l-.28809-1.165C401.80424,195.75153,399.44926,196.3805,397.14115,197.05152Z" transform="translate(-227.5 -155.43347)" fill="#ccc"/><path d="M411.209,193.57252l.24121,1.175-.001.001c2.33886-.479,4.71875-.914,7.08056-1.302l-.19287-1.184C415.96,192.65052,413.56205,193.09052,411.209,193.57252Z" transform="translate(-227.5 -155.43347)" fill="#ccc"/><path d="M418.732,547.63154c2.37012.375,4.78418.713,7.17725,1l.1416-1.185c-2.376-.286-4.7749-.622-7.12891-1Z" transform="translate(-227.5 -155.43347)" fill="#ccc"/><path d="M390.60209,540.73756c2.27881.758,4.60791,1.481,6.92187,2.149l.332-1.153c-2.29786-.663-4.61084-1.381-6.875-2.135Z" transform="translate(-227.5 -155.43347)" fill="#ccc"/><path d="M328.16605,504.67451c1.80079,1.6,3.65918,3.178,5.522,4.7l.76318-.932c-1.8501-1.512-3.69629-3.083-5.48535-4.668Z" transform="translate(-227.5 -155.43347)" fill="#ccc"/><path d="M339.39994,513.8495c1.91895,1.443,3.89893,2.872,5.8833,4.243l.68164-.98706c-1.9707-1.363-3.937-2.781-5.84375-4.215Z" transform="translate(-227.5 -155.43347)" fill="#ccc"/><path d="M318.57816,493.80152l-.86523.832c1.66992,1.736,3.395,3.46,5.126,5.123l.83105-.866C321.95121,497.23951,320.23685,495.52754,318.57816,493.80152Z" transform="translate(-227.5 -155.43347)" fill="#ccc"/><path d="M377.0142,535.58851c2.2207.946,4.48877,1.858,6.73974,2.711l.43018-1.119c-2.24121-.846-4.49414-1.75195-6.70019-2.692Z" transform="translate(-227.5 -155.43347)" fill="#ccc"/><path d="M363.8931,529.35951c2.12989,1.12,4.315,2.212,6.49512,3.247l.51367-1.085c-2.165-1.024-4.335-2.112-6.45068-3.224Z" transform="translate(-227.5 -155.43347)" fill="#ccc"/><path d="M351.33305,522.09651c2.02783,1.285,4.11718,2.549,6.208,3.758l.6001-1.038c-2.07715-1.202-4.15185-2.458-6.166-3.734Z" transform="translate(-227.5 -155.43347)" fill="#ccc"/><path d="M271.14213,406.10749c.481,2.355,1.01611,4.733,1.59277,7.07l1.165-.287c-.57178-2.323-1.104-4.684-1.582-7.023Z" transform="translate(-227.5 -155.43347)" fill="#ccc"/><path d="M345.78812,222.84754c1.96387-1.362,3.98-2.699,5.99073-3.976l-.64307-1.013c-2.02393,1.282-4.05371,2.629-6.03174,4l.68408.986Z" transform="translate(-227.5 -155.43347)" fill="#ccc"/><path d="M270.95609,341.43354c.38086-2.36005.80811-4.743,1.28076-7.084l-1.17578-.237c-.47607,2.356-.91015,4.756-1.29,7.132l1.18506.19Z" transform="translate(-227.5 -155.43347)" fill="#ccc"/><path d="M318.44828,246.15351l-.86621-.831c-1.666,1.737-3.31885,3.531-4.91211,5.331l.89893.799C315.14848,249.65986,316.7935,247.87922,318.44828,246.15351Z" transform="translate(-227.5 -155.43347)" fill="#ccc"/><polygon points="96.037 85.63 96.036 85.629 96.036 85.629 96.037 85.63" fill="#ccc"/><path d="M364.21,211.65754l-.56006-1.061c-2.12988,1.118-4.25488,2.3-6.33008,3.5l.6001,1.038C359.981,213.94154,362.09623,212.77052,364.21,211.65754Z" transform="translate(-227.5 -155.43347)" fill="#ccc"/><path d="M328.82621,236.17951l-.80029-.9c-1.79883,1.598-3.58985,3.253-5.3208,4.919l.83105.864C325.2559,239.40754,327.03519,237.76252,328.82621,236.17951Z" transform="translate(-227.5 -155.43347)" fill="#ccc"/><path d="M626.15727,347.82551c-.29-2.383-.63624-4.797-1.02442-7.175l-1.18457.194c.38672,2.362.72852,4.759,1.01758,7.126Z" transform="translate(-227.5 -155.43347)" fill="#ccc"/><path d="M626.1392,362.31855l1.20166-.05206c-.09961-2.399-.24561-4.834-.4458-7.23395l-1.2002.1C625.89115,357.5185,626.0391,359.93556,626.1392,362.31855Z" transform="translate(-227.5 -155.43347)" fill="#ccc"/><path d="M390.604,200.35554l-.38086-1.138c-2.28222.766-4.57812,1.58795-6.82324,2.444l.42725,1.121C386.05814,201.93452,388.33793,201.11555,390.604,200.35554Z" transform="translate(-227.5 -155.43347)" fill="#ccc"/><path d="M370.628,208.43153c2.14892-1.025,4.3501-2.021,6.543-2.96l-.47168-1.1c-2.208.946-4.42432,1.948-6.58838,2.98l.51709,1.083Z" transform="translate(-227.5 -155.43347)" fill="#ccc"/><path d="M334.29789,231.5055c1.84912-1.514,3.752-3.01,5.65527-4.443l-.72216-.958c-1.916,1.445-3.832,2.95-5.69385,4.475l.76074.928Z" transform="translate(-227.5 -155.43347)" fill="#ccc"/><polygon points="55.397 144.555 55.389 144.552 55.388 144.554 55.397 144.555" fill="#ccc"/><path d="M285.85893,293.40858l-1.084-.514c-1.03271,2.178-2.03467,4.407-2.978,6.624l1.09229.46662C283.82768,297.78394,284.8223,295.57075,285.85893,293.40858Z" transform="translate(-227.5 -155.43347)" fill="#ccc"/><path d="M273.80424,327.32154c.56689-2.32,1.18994-4.661,1.8501-6.95l-1.15332-.332c-.66309,2.308-1.292,4.664-1.8628,7l1.166.285Z" transform="translate(-227.5 -155.43347)" fill="#ccc"/><path d="M280.20316,306.68452l-1.123-.424c-.854,2.259-1.67188,4.563-2.43116,6.848l1.13916.379C278.54008,311.21754,279.35307,308.92951,280.20316,306.68452Z" transform="translate(-227.5 -155.43347)" fill="#ccc"/><polygon points="61.576 131.518 61.572 131.516 61.569 131.521 61.576 131.518" fill="#ccc"/><polygon points="86.07 96.02 86.069 96.019 86.068 96.02 86.07 96.02" fill="#ccc"/><path d="M308.91117,256.93952l-.93017-.759c-1.52,1.863-3.02491,3.784-4.4712,5.709l.95606.71851C305.90189,260.69721,307.39506,258.79041,308.91117,256.93952Z" transform="translate(-227.5 -155.43347)" fill="#ccc"/><path d="M292.5518,280.63557l-1.03858-.6c-1.20019,2.088-2.38135,4.227-3.5,6.359l1.0586.55481C290.18217,284.83106,291.35209,282.71082,292.5518,280.63557Z" transform="translate(-227.5 -155.43347)" fill="#ccc"/><polygon points="76.969 107.177 76.966 107.175 76.963 107.178 76.969 107.177" fill="#ccc"/><path d="M300.25687,268.45551l-.98681-.682c-1.36621,1.98-2.71289,4.017-4,6.052l1.01025.63977C297.55863,272.44508,298.89408,270.42384,300.25687,268.45551Z" transform="translate(-227.5 -155.43347)" fill="#ccc"/><polygon points="68.784 119.034 68.78 119.032 68.777 119.037 68.784 119.034" fill="#ccc"/><path d="M591.2559,261.56153l-.957.723c1.438,1.904,2.85693,3.865,4.21826,5.826l.98486-.683C594.13187,265.45252,592.70316,263.47852,591.2559,261.56153Z" transform="translate(-227.5 -155.43347)" fill="#ccc"/><path d="M594.63676,471.52546l.9873.682v.00506c1.37207-1.984,2.71973-4.019,4.00684-6.053l-1.01367-.642C597.337,467.53248,596,469.55445,594.63676,471.52546Z" transform="translate(-227.5 -155.43347)" fill="#ccc"/><path d="M599.5098,273.45655l-1.01171.644c1.2788,2.011,2.53515,4.077,3.73486,6.143l1.03711-.603C602.06205,277.55653,600.79691,275.48054,599.5098,273.45655Z" transform="translate(-227.5 -155.43347)" fill="#ccc"/><path d="M606.77689,285.97254l-1.061.56c1.11426,2.108,2.19922,4.268,3.22607,6.419l1.083-.516C608.99076,290.27253,607.898,288.09553,606.77689,285.97254Z" transform="translate(-227.5 -155.43347)" fill="#ccc"/><path d="M602.35014,459.35853l1.03808.6h.00488c1.21-2.09,2.395-4.224,3.50391-6.353l-1.062-.559C604.72416,455.15852,603.54984,457.28254,602.35014,459.35853Z" transform="translate(-227.5 -155.43347)" fill="#ccc"/><path d="M582.07133,250.36152l-.90039.8c1.58691,1.785,3.15918,3.626,4.67285,5.473l.92724-.763C585.251,254.01154,583.67094,252.16151,582.07133,250.36152Z" transform="translate(-227.5 -155.43347)" fill="#ccc"/><path d="M590.42,477.37153c-1.43506,1.906-2.93213,3.813-4.44824,5.667l.9292.759v-.004c1.52588-1.862,3.0332-3.781,4.478-5.7Z" transform="translate(-227.5 -155.43347)" fill="#ccc"/><path d="M571.313,498.8935c-1.72217,1.654-3.502,3.297-5.29,4.881l.79687.89637c1.79932-1.59442,3.59082-3.24695,5.32422-4.91138Z" transform="translate(-227.5 -155.43347)" fill="#ccc"/><path d="M572.01322,239.92756l-.83008.86694c1.72413,1.651,3.439,3.361,5.1001,5.084l.86182-.833C575.47416,243.31056,573.74711,241.58955,572.01322,239.92756Z" transform="translate(-227.5 -155.43347)" fill="#ccc"/><path d="M609.06791,446.59651l1.084.516v-.001c1.03614-2.177,2.03614-4.403,2.981-6.621l-1.09961-.471C611.09281,442.22352,610.09477,444.43549,609.06791,446.59651Z" transform="translate(-227.5 -155.43347)" fill="#ccc"/><path d="M576.41019,493.80555l.86475.832.00195.003c1.665-1.732,3.31836-3.525,4.918-5.325l-.8999-.8C579.71,490.30555,578.064,492.08552,576.41019,493.80555Z" transform="translate(-227.5 -155.43347)" fill="#ccc"/><polygon points="396.401 250.478 396.398 250.477 396.398 250.478 396.401 250.478" fill="#ccc"/><polygon points="398.708 236.169 398.707 236.169 398.707 236.169 398.708 236.169" fill="#ccc"/><polygon points="339.323 349.241 339.32 349.237 339.318 349.239 339.323 349.241" fill="#ccc"/><path d="M624.01322,398.59046c-.38135,2.362-.814,4.745-1.28906,7.082l1.17383.23841c.48-2.35285.917-4.75159,1.30029-7.1294Z" transform="translate(-227.5 -155.43347)" fill="#ccc"/><path d="M625.731,384.29646c-.189,2.378-.43018,4.788-.71485,7.163l1.19092.14288c.28711-2.392.52881-4.81793.72412-7.21087Z" transform="translate(-227.5 -155.43347)" fill="#ccc"/><path d="M626.29691,369.51057v.4c0,2.387-.04785,4.809-.14209,7.2l1.2002.047h.002c.09522-2.407.14307-4.844.14014-7.252v-.395Z" transform="translate(-227.5 -155.43347)" fill="#ccc"/><path d="M622.21879,326.45753l-1.165.289c.57324,2.314,1.1084,4.676,1.59033,7.021l1.17481-.242C623.335,331.16554,622.79691,328.78755,622.21879,326.45753Z" transform="translate(-227.5 -155.43347)" fill="#ccc"/><path d="M614.73,433.32752l1.12207.425v-.001c.85693-2.26,1.67773-4.563,2.439-6.844l-1.13818-.38C616.396,428.7945,615.58109,431.08253,614.73,433.32752Z" transform="translate(-227.5 -155.43347)" fill="#ccc"/><path d="M612.99711,299.02052l-1.1001.473c.93994,2.183,1.84717,4.422,2.7002,6.654l1.11377-.427C614.85307,303.47151,613.94,301.22053,612.99711,299.02052Z" transform="translate(-227.5 -155.43347)" fill="#ccc"/><path d="M618.16508,312.5445l-1.13819.382c.76221,2.269,1.48584,4.577,2.1543,6.869l1.15186-.335C619.66508,317.15254,618.93119,314.82551,618.16508,312.5445Z" transform="translate(-227.5 -155.43347)" fill="#ccc"/><path d="M621.15092,412.69648c-.57178,2.326-1.19678,4.665-1.85889,6.955l1.15283.333v-.001c.666-2.304,1.29541-4.66,1.8711-7.001Z" transform="translate(-227.5 -155.43347)" fill="#ccc"/><path d="M440.00492,191.26051v.006c2.3833-.098,4.80615-.15,7.19727-.161v-1.2c-2.40918.004-4.84619.055-7.2461.155Z" transform="translate(-227.5 -155.43347)" fill="#ccc"/><path d="M468.753,192.35755c2.37207.28,4.771.614,7.13086.99l.188-1.182c-2.37793-.382-4.78955-.71705-7.17774-1Z" transform="translate(-227.5 -155.43347)" fill="#ccc"/><path d="M496.94926,198.0395c2.29687.659,4.61084,1.375,6.87793,2.127l.377-1.139c-2.28223-.757-4.61133-1.477-6.92285-2.141Z" transform="translate(-227.5 -155.43347)" fill="#ccc"/><path d="M490.38187,543.5395l.28711,1.165v-.002c2.33887-.575,4.69385-1.206,7.001-1.872l-.334-1.153C495.045,542.33949,492.70609,542.96754,490.38187,543.5395Z" transform="translate(-227.5 -155.43347)" fill="#ccc"/><path d="M469.14408,547.41255c-2.37207.287-4.78223.529-7.16308.719l.0996,1.19665c2.397-.19287,4.82178-.43579,7.20752-.72369Z" transform="translate(-227.5 -155.43347)" fill="#ccc"/><path d="M482.96879,194.62953c2.34619.472,4.71045.998,7.02734,1.563l.28516-1.166c-2.333-.574-4.71338-1.099-7.0752-1.574Z" transform="translate(-227.5 -155.43347)" fill="#ccc"/><path d="M476.27592,546.40955l.19189,1.185v-.00305c2.36914-.381,4.76807-.819,7.1294-1.3l-.23926-1.175C481.01225,545.59351,478.62894,546.02955,476.27592,546.40955Z" transform="translate(-227.5 -155.43347)" fill="#ccc"/><path d="M433.12113,549.34651c2.40088.19,4.834.333,7.23389.427l.0459-1.203c-2.38574-.093-4.79981-.235-7.186-.424Z" transform="translate(-227.5 -155.43347)" fill="#ccc"/><path d="M561.15531,230.32551l-.7583.93c1.8501,1.508,3.69678,3.077,5.49024,4.662l.79492-.89905C564.877,233.42555,563.01713,231.84351,561.15531,230.32551Z" transform="translate(-227.5 -155.43347)" fill="#ccc"/><polygon points="234.581 393.898 234.581 393.895 234.577 393.895 234.581 393.898" fill="#ccc"/><path d="M454.40092,191.23756c2.3872.09094,4.8081.231,7.187.416l.09424-1.197c-2.395-.187-4.8291-.328-7.23535-.419Z" transform="translate(-227.5 -155.43347)" fill="#ccc"/><path d="M447.60014,548.71253v1.2c2.40185-.001,4.83984-.05005,7.248-.145l-.04834-1.2C452.40824,548.66255,449.98588,548.71253,447.60014,548.71253Z" transform="translate(-227.5 -155.43347)" fill="#ccc"/><path d="M543.0601,521.06153l.64209,1.014.0039.003c2.02491-1.286,4.05567-2.631,6.03614-4l-.68213-.987C547.08891,518.45155,545.07084,519.78755,543.0601,521.06153Z" transform="translate(-227.5 -155.43347)" fill="#ccc"/><path d="M504.20805,539.53254l.37988,1.138v-.001c2.28125-.761,4.57715-1.581,6.82715-2.436l-.42725-1.121C508.75394,537.9615,506.47318,538.77552,504.20805,539.53254Z" transform="translate(-227.5 -155.43347)" fill="#ccc"/><path d="M560.55082,508.44349c-1.855,1.516-3.76172,3.009-5.66162,4.44l.72119.95789c1.91455-1.43994,3.83252-2.944,5.69971-4.46887Z" transform="translate(-227.5 -155.43347)" fill="#ccc"/><path d="M537.28812,213.86952l-.60009,1.039c2.0708,1.194,4.14795,2.448,6.1709,3.726l.64111-1.014C541.46293,216.3335,539.37309,215.06953,537.28812,213.86952Z" transform="translate(-227.5 -155.43347)" fill="#ccc"/><polygon points="328.111 358.409 328.11 358.408 328.11 358.408 328.111 358.409" fill="#ccc"/><path d="M549.55521,221.62153l-.68115.988c1.96582,1.355,3.93408,2.771,5.84815,4.208l.7207-.959C553.51518,224.41151,551.53422,222.98652,549.55521,221.62153Z" transform="translate(-227.5 -155.43347)" fill="#ccc"/><path d="M511.05814,201.45551l-.42431,1.12305c2.24121.845,4.49414,1.748,6.70019,2.685l.4668-1.108C515.58109,203.21656,513.31205,202.30653,511.05814,201.45551Z" transform="translate(-227.5 -155.43347)" fill="#ccc"/><path d="M517.648,534.43452l.47119,1.1v.003c2.209-.943,4.42676-1.943,6.59082-2.972l-.51611-1.084C522.04789,532.50453,519.84184,533.49751,517.648,534.43452Z" transform="translate(-227.5 -155.43347)" fill="#ccc"/><path d="M524.42875,207.13252l-.5127,1.085c2.16407,1.024,4.33594,2.107,6.45508,3.217l.55762-1.063C528.794,209.25355,526.608,208.16352,524.42875,207.13252Z" transform="translate(-227.5 -155.43347)" fill="#ccc"/><path d="M530.61478,528.25953l.55909,1.062.0039.001c2.12744-1.12,4.2583-2.297,6.3291-3.498l-.60009-1.038C534.84477,525.97852,532.729,527.14753,530.61478,528.25953Z" transform="translate(-227.5 -155.43347)" fill="#ccc"/><path d="M416.552,226.449a1.60349,1.60349,0,0,1-1.57935-1.51464l-.00073-13.96a1.61121,1.61121,0,0,1,1.6648-1.53955l61.74731-.00048a1.598,1.598,0,0,1,1.64331,1.51318l.00073,13.96094a1.61255,1.61255,0,0,1-1.65332,1.53906H416.616C416.59452,226.44856,416.57328,226.449,416.552,226.449Zm.0354-15.602a.15886.15886,0,0,0-.1582.14991l.00073,13.90869a.16193.16193,0,0,0,.16455.12451l61.78955-.00049a.17068.17068,0,0,0,.18677-.1499l-.00073-13.90528a.16569.16569,0,0,0-.16455-.12451l-61.811-.00293Z" transform="translate(-227.5 -155.43347)" fill="#ccc"/><path d="M416.552,199.449a1.60349,1.60349,0,0,1-1.57935-1.51464l-.00073-13.96a1.61421,1.61421,0,0,1,1.6648-1.53955l61.74731-.00048a1.60069,1.60069,0,0,1,1.64331,1.51318l.00073,13.96094a1.60455,1.60455,0,0,1-1.65332,1.53906H416.616C416.59452,199.44856,416.57328,199.449,416.552,199.449Z" transform="translate(-227.5 -155.43347)" fill="#e5e5e5"/><path d="M416.552,172.449a1.60349,1.60349,0,0,1-1.57935-1.51464l-.00073-13.96a1.61655,1.61655,0,0,1,1.6648-1.53955l61.74731-.00048a1.60343,1.60343,0,0,1,1.64331,1.51318l.00073,13.96094a1.61357,1.61357,0,0,1-1.65332,1.53906H416.616C416.59452,172.44856,416.57328,172.449,416.552,172.449Z" transform="translate(-227.5 -155.43347)" fill="#f87236"/><g id="b9b363af-5303-4c18-a23e-df3b65209469" data-name="Group 64"><rect id="e3de4c85-d1c1-42fe-a42c-c18acdd2814e" data-name="Rectangle 25" y="166.47904" width="80" height="96" fill="#e6e6e6"/><rect id="fe265eb4-d8ad-4188-b40e-9412ee773139" data-name="Rectangle 25-2" x="2.29599" y="169.43305" width="75.146" height="90.175" fill="#fff"/><rect id="e738187c-325b-4068-9a87-7b14c6a5a06e" data-name="Rectangle 31" x="8.50601" y="184.51405" width="30.058" height="3.757" fill="#e6e6e6"/><rect id="b4667f7c-6534-4bc0-a7af-c9425a83f984" data-name="Rectangle 32" x="8.50601" y="197.28904" width="45.493" height="3.757" fill="#f87236"/><rect id="bfd14e20-c4b4-4975-b104-b5d7b17119c2" data-name="Rectangle 38" x="8.50601" y="210.06306" width="27.397" height="3.757" fill="#e6e6e6"/><rect id="aefc8445-277c-4a0d-9a38-15f1d129f2f6" data-name="Rectangle 39" x="8.50601" y="222.83805" width="57.176" height="3.757" fill="#f87236"/><rect id="b28680f7-0f2a-4f1c-a56c-8b8834e2a932" data-name="Rectangle 40" x="8.50601" y="235.61305" width="57.176" height="3.757" fill="#e6e6e6"/></g><g id="ed001692-4e2b-40c0-8dd4-0752cad6d5fa" data-name="Group 65"><path id="e8f8166f-e1bc-41da-9765-0616df81a660-34" data-name="Path 1011" d="M389.39412,515.41282a1.159,1.159,0,0,0-1.158,1.158v66.684a1.159,1.159,0,0,0,1.158,1.158h132.212a1.159,1.159,0,0,0,1.158-1.158v-66.684a1.159,1.159,0,0,0-1.158-1.158Z" transform="translate(-227.5 -155.43347)" fill="#e6e6e6"/><path id="ab70177d-851a-4034-849b-dc5f8bdfad9b-35" data-name="Path 1012" d="M391.247,517.26487a1.159,1.159,0,0,0-1.158,1.158v62.98a1.159,1.159,0,0,0,1.158,1.158h128.506a1.159,1.159,0,0,0,1.158-1.158v-62.98a1.159,1.159,0,0,0-1.158-1.158Z" transform="translate(-227.5 -155.43347)" fill="#fff"/><path id="a6de2725-ae37-49ee-b007-49636fd70c7e-36" data-name="Path 1013" d="M429.799,557.7852H402.477a1.623,1.623,0,0,1-1.621-1.621v-27.322a1.623,1.623,0,0,1,1.621-1.621h27.322a1.623,1.623,0,0,1,1.621,1.621v27.322A1.623,1.623,0,0,1,429.799,557.7852Zm-27.322-30.1a1.159,1.159,0,0,0-1.158,1.158v27.322a1.159,1.159,0,0,0,1.158,1.158h27.322a1.159,1.159,0,0,0,1.158-1.158v-27.323a1.159,1.159,0,0,0-1.158-1.158Z" transform="translate(-227.5 -155.43347)" fill="#3f3d56"/><path id="a19aa1f8-ee50-4a31-b5b0-1f46abbb6fa5-37" data-name="Path 1014" d="M469.161,557.7852h-27.322a1.623,1.623,0,0,1-1.621-1.621v-27.322a1.623,1.623,0,0,1,1.621-1.621h27.322a1.623,1.623,0,0,1,1.621,1.621v27.322A1.623,1.623,0,0,1,469.161,557.7852Zm-27.322-30.1a1.159,1.159,0,0,0-1.158,1.158v27.322a1.159,1.159,0,0,0,1.158,1.158h27.322a1.159,1.159,0,0,0,1.158-1.158v-27.323a1.159,1.159,0,0,0-1.158-1.158Z" transform="translate(-227.5 -155.43347)" fill="#e6e6e6"/><path id="a2e99a8c-7c3e-4a46-b050-978645415aa0-38" data-name="Path 1015" d="M443.923,529.7633a1.159,1.159,0,0,0-1.158,1.158v23.154a1.159,1.159,0,0,0,1.158,1.158h23.158a1.159,1.159,0,0,0,1.158-1.158v-23.15a1.159,1.159,0,0,0-1.156-1.162h-23.16Z" transform="translate(-227.5 -155.43347)" fill="#e6e6e6"/><path id="a1a7701c-a4b3-45f7-ba82-ecc014cc0ab0-39" data-name="Path 1016" d="M404.6771,529.7633a1.159,1.159,0,0,0-1.158,1.158v23.154a1.159,1.159,0,0,0,1.158,1.158h23.154a1.159,1.159,0,0,0,1.158-1.158v-23.15a1.159,1.159,0,0,0-1.158-1.158Z" transform="translate(-227.5 -155.43347)" fill="#3f3d56"/><path id="b42d7989-02f3-4c84-ad2b-8e00dd2df745-40" data-name="Path 1017" d="M483.166,529.7633a1.159,1.159,0,0,0-1.158,1.158v23.154a1.159,1.159,0,0,0,1.156,1.162H506.32a1.159,1.159,0,0,0,1.158-1.158v-23.154a1.159,1.159,0,0,0-1.158-1.158Z" transform="translate(-227.5 -155.43347)" fill="#f87236"/><path id="f813e1b9-be7f-44e3-b624-f228ad519824-41" data-name="Path 1018" d="M508.52307,557.7852h-27.317a1.623,1.623,0,0,1-1.621-1.621v-27.322a1.623,1.623,0,0,1,1.621-1.621h27.322a1.623,1.623,0,0,1,1.621,1.621v27.322a1.623,1.623,0,0,1-1.625,1.621Zm-27.322-30.1a1.159,1.159,0,0,0-1.158,1.158v27.322a1.159,1.159,0,0,0,1.158,1.158h27.322a1.159,1.159,0,0,0,1.158-1.158v-27.323a1.159,1.159,0,0,0-1.158-1.158Z" transform="translate(-227.5 -155.43347)" fill="#f87236"/><circle id="a256ee75-ac51-43d7-97e2-3db24c3be389" data-name="Ellipse 187" cx="217.00204" cy="411.1504" r="3.936" fill="#e6e6e6" opacity="0.8" style="isolation:isolate"/><circle id="aa825252-37aa-41e2-9a2c-ccbee99d2ef1" data-name="Ellipse 188" cx="239.23007" cy="411.1504" r="3.936" fill="#e6e6e6" opacity="0.4" style="isolation:isolate"/><circle id="e2e0d947-3ebc-480d-8987-97d04e023704" data-name="Ellipse 189" cx="228.11606" cy="411.1504" r="3.936" fill="#e6e6e6" opacity="0.6" style="isolation:isolate"/><circle id="a24995dc-8888-4773-9a89-b4343b8ccc71" data-name="Ellipse 190" cx="177.639" cy="411.1504" r="3.936" fill="#3f3d56" opacity="0.8" style="isolation:isolate"/><circle id="b46cd29b-6d35-4cd2-afa1-c57a3756ab6b" data-name="Ellipse 191" cx="199.86703" cy="411.1504" r="3.936" fill="#3f3d56" opacity="0.4" style="isolation:isolate"/><circle id="f601e6e7-677d-43cb-b027-d603cd29d25a" data-name="Ellipse 192" cx="188.75302" cy="411.1504" r="3.936" fill="#3f3d56" opacity="0.6" style="isolation:isolate"/><circle id="a77d708d-bca5-43b2-b23e-dc16f9e9193a" data-name="Ellipse 193" cx="256.3641" cy="411.1504" r="3.936" fill="#f87236" opacity="0.8" style="isolation:isolate"/><circle id="e63dac9c-0d6c-4c6c-9542-a36cc92b4df6" data-name="Ellipse 194" cx="278.59201" cy="411.1504" r="3.936" fill="#f87236" opacity="0.4" style="isolation:isolate"/><circle id="a1090fae-2383-417d-8f76-05f45bb8b5bf" data-name="Ellipse 195" cx="267.47812" cy="411.1504" r="3.936" fill="#f87236" opacity="0.6" style="isolation:isolate"/></g><circle id="a3d5bffd-d54f-4a9c-b6b3-ef1fd30503af" data-name="Ellipse 18" cx="400" cy="214.47904" r="20" fill="#f87236"/><path id="b8d1c3cf-0786-4fd7-9dbb-a868aee65219-42" data-name="Path 1032" d="M633.785,368.19655h-4.571v-4.57a1.71451,1.71451,0,1,0-3.429,0v4.57h-4.571a1.71451,1.71451,0,0,0,0,3.429h4.571v4.571a1.71451,1.71451,0,0,0,3.429,0v-4.57h4.571a1.71451,1.71451,0,0,0,0-3.429Z" transform="translate(-227.5 -155.43347)" fill="#fff"/><path id="f09e6b73-ec44-4a81-9472-b9971c159185-43" data-name="Path 944" d="M971.5,744.56653h-743a1,1,0,0,1,0-2h743a1,1,0,0,1,0,2Z" transform="translate(-227.5 -155.43347)" fill="#e6e6e6"/><path id="aa6a1b03-01bc-43f9-8d1d-1f66ad434225-44" data-name="Path 1040" d="M849.619,521.80852a10.74308,10.74308,0,0,0-3.069-16.184l-23.222-95.049-16.941,5.408,25.076,94.4a10.8,10.8,0,0,0,18.156,11.425Z" transform="translate(-227.5 -155.43347)" fill="#feb8b8"/><path id="a6949b1a-5963-4d38-a458-8dd742dc2d45-45" data-name="Path 1041" d="M837.618,461.00852l-12.38,10.68-17.32,14.929-7.649-39.14-.8-4.07-.631-3.23,17.551-30.57,14.63.84,1,.06.02.22.23,2.05,3,26.98.07.65Z" transform="translate(-227.5 -155.43347)" fill="#3f3d56"/><path id="a122a32d-00ec-400b-9b5e-b1ad39aba6d6-46" data-name="Path 1042" d="M756.698,730.68151h-12.26l-5.832-47.288H756.7Z" transform="translate(-227.5 -155.43347)" fill="#feb8b8"/><path id="b2b65556-0eff-4e5d-9831-8f0a24808bed-47" data-name="Path 1043" d="M759.825,726.67949H735.68a15.387,15.387,0,0,0-15.387,15.385v.5h39.531Z" transform="translate(-227.5 -155.43347)" fill="#2f2e41"/><path id="ab238a02-974c-41f5-a546-432b685672c0-48" data-name="Path 1044" d="M884.698,729.68151h-12.26l-5.832-47.288H884.7Z" transform="translate(-227.5 -155.43347)" fill="#feb8b8"/><path id="fbf45d8a-abbd-48fe-bb2c-575d0dc00298-49" data-name="Path 1045" d="M887.825,725.67949H863.68a15.387,15.387,0,0,0-15.386,15.385v.5h39.531Z" transform="translate(-227.5 -155.43347)" fill="#2f2e41"/><path id="e52923a3-9b64-4dc0-8091-79e47d0c746f-50" data-name="Path 1046" d="M894.496,708.85753l-33,5-48.01-162.48-50.99,163.48-37-5,48-190v-15l6.5-22.5-.68-6.09-4.73-42.59-2.05-18.47-.133-1.193a4.055,4.055,0,0,1,3.193-4.417h0l15.4-3.24h25.17l14.85,4.09,1.02.28.46.13-.23,1.92-3.48,29.18-.19,1.6-3.36,28.13-.74,6.17c29,21,30,42,30,42Z" transform="translate(-227.5 -155.43347)" fill="#3f3d56"/><circle id="fabcab18-9703-4a51-95d8-135fdfe0b420" data-name="Ellipse 197" cx="573.04001" cy="213.71205" r="24.561" fill="#feb8b8"/><rect id="a4f5ffd7-3fc9-4668-bda7-a07509dd6690" data-name="Rectangle 153" x="777.99798" y="475.35585" width="49" height="7" transform="translate(-282.821 -47.32354) rotate(-7.451)" fill="#cbcbcb"/><path id="ac9b6f70-0563-41e5-b87b-91f360a30f5e-51" data-name="Path 1047" d="M712.579,480.65954a10.52683,10.52683,0,0,1,1.316,1.007l48.056-12.251,3.278-11.593,18.143,2.661-3.809,21.088a8,8,0,0,1-7.035,6.534l-56.111,5.909a10.5,10.5,0,1,1-3.839-13.355Z" transform="translate(-227.5 -155.43347)" fill="#feb8b8"/><path id="eb4c7a3a-cef4-420f-9f99-9f4d4435814b-52" data-name="Path 1048" d="M786.496,415.85753l-8.5-6.5c-2.3-.872-5.447,1.605-6,4l-12,49,25,18,3.5-5.5Z" transform="translate(-227.5 -155.43347)" fill="#3f3d56"/><path id="e3fe0647-b177-4f4a-abe6-a260452e1a64-53" data-name="Path 1076" d="M779.441,363.23753l1.336-2.151a16.275,16.275,0,0,1,17.239,7.756c.843-3.107,5.854-2.947,7.709-.315s1.444,6.186.842,9.348-1.282,6.6.178,9.467a8.773,8.773,0,0,0,7.67,4.362,16.316,16.316,0,0,0,8.71-2.772,29.818,29.818,0,0,0,13.589-28.735,28.69184,28.69184,0,0,0-4.722-12.122,5.6,5.6,0,0,0,3.713-1.8,5.942,5.942,0,0,0,.651-6.17,11.18109,11.18109,0,0,0-3.642-4.322,9.069,9.069,0,0,0,3.854,1.8c1.733.25,3.755-.65,4.069-2.319.3-1.59-.974-3.038-2.151-4.2l-2.29-2.269a14.47332,14.47332,0,0,0,1.1-1.414,11.37494,11.37494,0,0,0,.5741-12.344c2.185,3.731.268,8.17-3.581,11.2-.124.1-.263.183-.39.277l-1.46-1.447a12.51372,12.51372,0,0,0-4.109-3.072c-1.616-.62-3.68-.438-4.734.876-1.129,1.407-.813,3.646-2.133,4.884-1.156,1.083-3.037.9-4.593.445s-3.163-1.126-4.735-.783a4.44706,4.44706,0,0,0-3.109,5.093,6.062,6.062,0,0,0,1.15,2.567,80.10757,80.10757,0,0,0-13.065-.04c-5.118.285-10.349.64-15.07,2.638s-8.918,5.972-9.789,11.024S774.334,362.79353,779.441,363.23753Z" transform="translate(-227.5 -155.43347)" fill="#2f2e41"/><g id="a936e062-b340-40f1-9691-dd1057d044d0" data-name="Group 58"><path id="b857b5d0-4f62-4c06-bd0c-c175361348e0-54" data-name="Path 438" d="M282.259,716.14052a12.8,12.8,0,0,0,12.364-2.178c4.33-3.635,5.688-9.623,6.793-15.168l3.268-16.4-6.841,4.711c-4.92,3.388-9.95,6.884-13.356,11.79s-4.893,11.6-2.156,16.914" transform="translate(-227.5 -155.43347)" fill="#e6e6e6"/><path id="ec5e1437-a52d-4082-8bff-cbc88a1edb97-55" data-name="Path 439" d="M283.315,737.13649c-.861-6.273-1.747-12.627-1.143-18.967a29.832,29.832,0,0,1,5.752-15.64,26.01836,26.01836,0,0,1,6.675-6.049c.668-.421,1.282.637.617,1.056a24.73491,24.73491,0,0,0-9.784,11.805c-2.13,5.418-2.472,11.324-2.105,17.079.222,3.48.692,6.938,1.167,10.391a.634.634,0,0,1-.427.752.615.615,0,0,1-.752-.427Z" transform="translate(-227.5 -155.43347)" fill="#f2f2f2"/><path id="a99bc2f1-681d-4a68-a4d2-93773de40ca8-56" data-name="Path 442" d="M289.513,727.07149a9.42507,9.42507,0,0,0,8.212,4.238c4.157-.2,7.623-3.1,10.743-5.853l9.228-8.147-6.107-.292c-4.392-.21-8.9-.406-13.08.948s-8.041,4.614-8.806,8.944" transform="translate(-227.5 -155.43347)" fill="#e6e6e6"/><path id="ae78d226-4bc9-4363-a654-932dfc4891c6-57" data-name="Path 443" d="M280.881,740.74251c4.145-7.335,8.953-15.486,17.544-18.092a19.57826,19.57826,0,0,1,7.379-.762c.783.068.588,1.275-.194,1.208a18.18816,18.18816,0,0,0-11.776,3.116,30.61041,30.61041,0,0,0-8.094,8.735c-1.34,2.041-2.541,4.169-3.742,6.294C281.615,741.92049,280.493,741.4305,280.881,740.74251Z" transform="translate(-227.5 -155.43347)" fill="#f2f2f2"/></g></svg>